<svg width="60" height="61" viewBox="0 0 60 61" fill="none" xmlns="http://www.w3.org/2000/svg">
<path fill-rule="evenodd" clip-rule="evenodd" d="M13.0247 8.52929C17.5042 6.53879 23.5083 5.375 30 5.375C36.4917 5.375 42.4958 6.53879 46.9753 8.52929C49.2118 9.52308 51.1843 10.7745 52.6332 12.297C54.095 13.8331 55.125 15.7648 55.125 18V30.5C55.125 31.9497 53.9497 33.125 52.5 33.125C51.0503 33.125 49.875 31.9497 49.875 30.5V25.9305C48.9815 26.4995 48.0065 27.0125 46.9753 27.4707C42.4958 29.4612 36.4917 30.625 30 30.625C23.5083 30.625 17.5042 29.4612 13.0247 27.4707C11.9935 27.0125 11.0185 26.4995 10.125 25.9305V30.5C10.125 31.0273 10.3544 31.7268 11.1699 32.5837C11.9983 33.4542 13.3211 34.3575 15.1566 35.173C18.8208 36.8013 24.0667 37.875 30 37.875C31.4497 37.875 32.625 39.0503 32.625 40.5C32.625 41.9497 31.4497 43.125 30 43.125C23.5083 43.125 17.5042 41.9612 13.0247 39.9707C11.9935 39.5125 11.0185 38.9995 10.125 38.4305V43C10.125 43.5273 10.3544 44.2268 11.1699 45.0837C11.9983 45.9542 13.3211 46.8575 15.1566 47.673C18.8208 49.3013 24.0667 50.375 30 50.375C31.4497 50.375 32.625 51.5503 32.625 53C32.625 54.4497 31.4497 55.625 30 55.625C23.5083 55.625 17.5042 54.4612 13.0247 52.4707C10.7882 51.4769 8.81574 50.2255 7.36683 48.703C5.90498 47.1669 4.875 45.2352 4.875 43V18C4.875 15.7648 5.90498 13.8331 7.36683 12.297C8.81574 10.7745 10.7882 9.52308 13.0247 8.52929ZM10.125 18C10.125 18.5273 10.3544 19.2268 11.1699 20.0837C11.9983 20.9542 13.3211 21.8575 15.1566 22.673C18.8208 24.3013 24.0667 25.375 30 25.375C35.9333 25.375 41.1792 24.3013 44.8434 22.673C46.6789 21.8575 48.0017 20.9542 48.8301 20.0837C49.6456 19.2268 49.875 18.5273 49.875 18C49.875 17.4727 49.6456 16.7732 48.8301 15.9163C48.0017 15.0458 46.6789 14.1425 44.8434 13.327C41.1792 11.6987 35.9333 10.625 30 10.625C24.0667 10.625 18.8208 11.6987 15.1566 13.327C13.3211 14.1425 11.9983 15.0458 11.1699 15.9163C10.3544 16.7732 10.125 17.4727 10.125 18ZM45 35.375C46.4497 35.375 47.625 36.5503 47.625 38V42.875H52.5C53.9497 42.875 55.125 44.0503 55.125 45.5C55.125 46.9497 53.9497 48.125 52.5 48.125H47.625V53C47.625 54.4497 46.4497 55.625 45 55.625C43.5503 55.625 42.375 54.4497 42.375 53V48.125H37.5C36.0503 48.125 34.875 46.9497 34.875 45.5C34.875 44.0503 36.0503 42.875 37.5 42.875H42.375V38C42.375 36.5503 43.5503 35.375 45 35.375Z" fill="#00274C"/>
</svg>
