<svg width="60" height="61" viewBox="0 0 60 61" fill="none" xmlns="http://www.w3.org/2000/svg">
<path d="M47.4469 23.2956C45.7622 21.3726 41.685 17.4179 35.9437 16.517C33.8344 16.1972 31.6884 16.8608 29.9991 18.2531C28.3125 16.9432 26.1656 16.271 24.0469 16.599C16.575 17.7726 11.8781 24.1632 11.6812 24.4397C10.9459 25.4588 11.1627 26.8918 12.1617 27.6402C12.547 27.9291 13.0133 28.0848 13.492 28.0842C14.1863 28.0842 14.8692 27.7624 15.3089 27.1516C15.347 27.0979 19.0767 22.0118 24.7308 21.1233C25.4299 21.0317 26.1352 21.1872 26.752 21.5507L21.3 27.214C20.1375 28.3867 19.4156 29.874 19.4156 31.6282C19.4156 33.2966 20.0542 34.864 21.2119 36.0415C22.4531 37.2246 23.9906 37.7871 25.6312 37.7871C27.2719 37.7871 28.8131 37.1376 29.9728 35.9576L31.0369 34.8755L42.6806 44.4952C42.8974 44.6739 42.9296 44.9958 42.7275 45.255L40.1316 48.6634C39.9587 48.8779 39.6394 48.9107 39.4607 48.7647L37.3776 46.9828L34.9222 49.6285C34.7025 49.9026 34.4212 49.9682 34.2748 49.9831C34.1196 49.9979 33.8471 49.995 33.6362 49.8192L30.5978 47.1821L29.1281 48.5795L28.8645 48.8596C28.3166 49.5419 27.5436 49.9712 26.682 50.0609C25.7943 50.1384 24.9711 49.894 24.3851 49.4143L15.9656 41.6674H9V23.41H0V47.7786L6 47.7825C7.10063 47.7825 8.02219 47.1431 8.54437 46.2437H14.2294L21.4538 52.885C22.8469 54.0424 24.5531 54.6526 26.325 54.6526C26.5945 54.6526 26.867 54.6407 27.1365 54.6108C28.4134 54.4768 29.6124 54.0328 30.6493 53.3237L30.7342 53.4013C31.8621 54.3428 33.2918 54.7751 34.7364 54.6197C35.973 54.4886 37.1064 53.9493 37.9155 53.1562C39.8927 53.9369 42.2364 53.3797 43.6577 51.586L46.2536 48.1776C47.9852 46.002 47.6571 42.7929 45.5182 41.0263L34.2401 31.7059L35.0258 30.9068C35.9048 30.0129 35.9048 28.5643 35.0258 27.671C34.1469 26.7771 32.7233 26.7771 31.844 27.671L26.7937 32.8009C26.175 33.4397 25.0969 33.4397 24.4781 32.8009C24.1676 32.488 23.9977 32.0709 23.9977 31.6273C23.9977 31.1803 24.1675 30.7631 24.4928 30.4327L32.5468 22.0772C33.2792 21.3292 34.284 20.9569 35.2599 21.1209C40.8615 21.9999 44.6537 27.1015 44.6912 27.1549C44.9807 27.551 45.3722 27.8171 45.8012 27.9535H51V44.6473C51 46.332 52.3434 47.7029 53.9156 47.7029L60 47.7882V23.3909L47.4469 23.2956ZM4.5 44.7373C3.67969 44.7373 3 44.0466 3 43.2129C3 42.3666 3.67969 41.6884 4.5 41.6884C5.32031 41.6884 6 42.3729 6 43.2214C6 44.0509 5.32031 44.7373 4.5 44.7373ZM55.5 44.7373C54.6797 44.7373 54 44.0466 54 43.2129C54 42.3666 54.6797 41.6884 55.5 41.6884C56.3203 41.6884 57 42.3669 57 43.2129C57 44.0509 56.325 44.7373 55.5 44.7373Z" fill="#00274C"/>
</svg>
