<svg width="60" height="61" viewBox="0 0 60 61" fill="none" xmlns="http://www.w3.org/2000/svg">
<path fill-rule="evenodd" clip-rule="evenodd" d="M2.65625 30.5C2.65625 15.3981 14.8981 3.15625 30 3.15625C45.1019 3.15625 57.3438 15.3981 57.3438 30.5C57.3438 45.6019 45.1019 57.8438 30 57.8438C14.8981 57.8438 2.65625 45.6019 2.65625 30.5ZM30 7.84375C17.4869 7.84375 7.34375 17.9869 7.34375 30.5C7.34375 43.0131 17.4869 53.1562 30 53.1562C42.5131 53.1562 52.6562 43.0131 52.6562 30.5C52.6562 17.9869 42.5131 7.84375 30 7.84375Z" fill="#00274C"/>
<path fill-rule="evenodd" clip-rule="evenodd" d="M30 15.6562C30.8411 15.6562 31.6177 16.1069 32.0349 16.8372L42.0349 34.3372C42.2373 34.6913 42.3437 35.0921 42.3437 35.5V53.42C42.3437 54.7144 41.2944 55.7637 40 55.7637C38.7056 55.7637 37.6562 54.7144 37.6562 53.42V36.1224L30 22.724L22.3438 36.1224V53.42C22.3438 54.7144 21.2944 55.7637 20 55.7637C18.7056 55.7637 17.6562 54.7144 17.6562 53.42V35.5C17.6562 35.0921 17.7627 34.6913 17.9651 34.3372L27.9651 16.8372C28.3823 16.1069 29.1589 15.6562 30 15.6562Z" fill="#00274C"/>
<path fill-rule="evenodd" clip-rule="evenodd" d="M18.2469 33.9445C19.106 32.9763 20.5873 32.8878 21.5556 33.7469L20 35.5C21.5556 33.7469 21.5552 33.7466 21.5549 33.7464L21.5523 33.744C21.5518 33.7436 21.5526 33.7443 21.5534 33.745L21.5655 33.7555C21.5788 33.767 21.6018 33.7868 21.6336 33.8135C21.6975 33.8672 21.7959 33.9484 21.9225 34.0478C22.1781 34.2487 22.5356 34.5141 22.9444 34.7756C23.8835 35.3762 24.6361 35.6563 25 35.6563C25.3639 35.6563 26.1165 35.3762 27.0556 34.7756C27.4644 34.5141 27.8218 34.2487 28.0775 34.0478C28.2041 33.9484 28.3025 33.8672 28.3664 33.8135C28.3982 33.7868 28.4212 33.767 28.4345 33.7555L28.4466 33.745L28.4451 33.7464C29.3316 32.9603 30.6651 32.9596 31.5524 33.7441C31.553 33.7447 31.5537 33.7452 31.5543 33.7458L31.5534 33.745L31.5655 33.7555C31.5788 33.767 31.6018 33.7868 31.6336 33.8135C31.6975 33.8672 31.7959 33.9484 31.9225 34.0478C32.1781 34.2487 32.5356 34.5141 32.9444 34.7756C33.8835 35.3762 34.6361 35.6563 35 35.6563C35.3639 35.6563 36.1165 35.3762 37.0556 34.7756C37.4644 34.5141 37.8218 34.2487 38.0775 34.0478C38.2041 33.9484 38.3025 33.8672 38.3664 33.8135C38.3982 33.7868 38.4212 33.767 38.4345 33.7555L38.4456 33.7459L38.4451 33.7464C39.4133 32.8878 40.8942 32.9765 41.7531 33.9445C42.6122 34.9127 42.5238 36.394 41.5556 37.2531L40 35.5C41.5556 37.2531 41.5552 37.2534 41.5549 37.2538L41.5482 37.2597L41.5366 37.2699L41.5011 37.3007C41.4721 37.3258 41.4324 37.3598 41.383 37.4014C41.2842 37.4844 41.1455 37.5986 40.9738 37.7335C40.633 38.0013 40.1497 38.3609 39.5813 38.7245C38.566 39.3738 36.8186 40.3438 35 40.3438C33.1814 40.3438 31.434 39.3738 30.4187 38.7245C30.2733 38.6314 30.1334 38.5386 30 38.4476C29.8666 38.5386 29.7267 38.6314 29.5813 38.7245C28.566 39.3738 26.8186 40.3438 25 40.3438C23.1814 40.3438 21.434 39.3738 20.4187 38.7245C19.8503 38.3609 19.367 38.0013 19.0262 37.7335C18.8545 37.5986 18.7158 37.4844 18.617 37.4014C18.5676 37.3598 18.5279 37.3258 18.4989 37.3007L18.4634 37.2699L18.4518 37.2597L18.4476 37.2559L18.4451 37.2538C18.4448 37.2534 18.4444 37.2531 20 35.5L18.4444 37.2531C17.4762 36.394 17.3878 34.9127 18.2469 33.9445ZM31.5543 33.7458C31.5544 33.7459 31.5542 33.7457 31.5543 33.7458V33.7458Z" fill="#00274C"/>
</svg>
