<svg width="60" height="61" viewBox="0 0 60 61" fill="none" xmlns="http://www.w3.org/2000/svg">
<path d="M56.0543 51.3125L45.5074 25.7656C45.3126 25.2938 44.9822 24.8905 44.558 24.6067C44.1337 24.3229 43.6348 24.1714 43.1244 24.1714C42.614 24.1714 42.1151 24.3229 41.6909 24.6067C41.2666 24.8905 40.9362 25.2938 40.7414 25.7656L30.1945 51.3125C30.0634 51.6258 29.9954 51.9619 29.9946 52.3015C29.9937 52.6412 30.06 52.9776 30.1895 53.2916C30.3191 53.6055 30.5094 53.8908 30.7496 54.1309C30.9897 54.3711 31.275 54.5615 31.5889 54.6911C31.9028 54.8207 32.2393 54.887 32.5789 54.8862C32.9185 54.8853 33.2547 54.8174 33.568 54.6863C33.8813 54.5552 34.1656 54.3635 34.4046 54.1221C34.6435 53.8808 34.8325 53.5947 34.9605 53.2801L37.1086 48.0781H49.1402L51.2883 53.2801C51.483 53.7521 51.8135 54.1556 52.2378 54.4396C52.6622 54.7235 53.1613 54.8751 53.6719 54.875C54.0955 54.8747 54.5126 54.7701 54.8861 54.5703C55.2597 54.3705 55.5783 54.0818 55.8137 53.7296C56.0491 53.3774 56.1941 52.9726 56.2359 52.551C56.2777 52.1294 56.2149 51.704 56.0531 51.3125H56.0543ZM39.2379 42.9219L43.125 33.5059L47.0121 42.9219H39.2379ZM31.3875 40.6859C31.788 40.1327 31.9526 39.4431 31.8452 38.7686C31.7378 38.094 31.3671 37.4897 30.8145 37.0883C30.791 37.0707 29.0566 35.784 26.5383 33.0184C31.1848 26.7277 33.8168 19.5711 34.8902 16.2031H38.6719C39.3556 16.2031 40.0114 15.9315 40.4949 15.448C40.9784 14.9645 41.25 14.3088 41.25 13.625C41.25 12.9412 40.9784 12.2855 40.4949 11.802C40.0114 11.3185 39.3556 11.0469 38.6719 11.0469H25.0781V8.70313C25.0781 8.01936 24.8065 7.36361 24.323 6.88012C23.8395 6.39662 23.1838 6.125 22.5 6.125C21.8162 6.125 21.1605 6.39662 20.677 6.88012C20.1935 7.36361 19.9219 8.01936 19.9219 8.70313V11.0469H6.32813C5.64436 11.0469 4.98861 11.3185 4.50512 11.802C4.02162 12.2855 3.75 12.9412 3.75 13.625C3.75 14.3088 4.02162 14.9645 4.50512 15.448C4.98861 15.9315 5.64436 16.2031 6.32813 16.2031H29.4434C28.3277 19.3613 26.2734 24.3477 23.1398 28.9016C19.459 24.0172 18.0914 20.8566 18.0809 20.8309C17.8114 20.2081 17.3073 19.7167 16.6778 19.4632C16.0484 19.2097 15.3444 19.2146 14.7186 19.4768C14.0927 19.739 13.5955 20.2373 13.3347 20.8638C13.0739 21.4902 13.0705 22.1942 13.3254 22.823C13.3934 22.9848 15.0305 26.8344 19.5199 32.6586C19.6277 32.798 19.7344 32.934 19.841 33.0699C15.2426 38.2672 10.7309 41.491 8.84297 42.5316C8.24266 42.8591 7.797 43.4116 7.60405 44.0676C7.41109 44.7236 7.48663 45.4294 7.81406 46.0297C8.14149 46.63 8.69398 47.0757 9.34999 47.2686C10.006 47.4616 10.7118 47.386 11.3121 47.0586C11.5652 46.9203 17.0074 43.9074 23.2219 37.0285C25.8609 39.8504 27.675 41.1816 27.784 41.259C28.0582 41.4582 28.369 41.6013 28.6986 41.6803C29.0282 41.7592 29.3701 41.7724 29.7048 41.719C30.0395 41.6657 30.3604 41.5469 30.6491 41.3694C30.9379 41.192 31.1888 40.9593 31.3875 40.6848V40.6859Z" fill="#00274C"/>
</svg>
