<svg width="60" height="61" viewBox="0 0 60 61" fill="none" xmlns="http://www.w3.org/2000/svg">
<path d="M47.5 8H12.5C10.5109 8 8.60322 8.79018 7.1967 10.1967C5.79018 11.6032 5 13.5109 5 15.5V35.5C5 37.4891 5.79018 39.3968 7.1967 40.8033C8.60322 42.2098 10.5109 43 12.5 43H27.5V48H17.5C16.837 48 16.2011 48.2634 15.7322 48.7322C15.2634 49.2011 15 49.837 15 50.5C15 51.163 15.2634 51.7989 15.7322 52.2678C16.2011 52.7366 16.837 53 17.5 53H42.5C43.163 53 43.7989 52.7366 44.2678 52.2678C44.7366 51.7989 45 51.163 45 50.5C45 49.837 44.7366 49.2011 44.2678 48.7322C43.7989 48.2634 43.163 48 42.5 48H32.5V43H47.5C49.4891 43 51.3968 42.2098 52.8033 40.8033C54.2098 39.3968 55 37.4891 55 35.5V15.5C55 13.5109 54.2098 11.6032 52.8033 10.1967C51.3968 8.79018 49.4891 8 47.5 8ZM50 35.5C50 36.163 49.7366 36.7989 49.2678 37.2678C48.7989 37.7366 48.163 38 47.5 38H12.5C11.837 38 11.2011 37.7366 10.7322 37.2678C10.2634 36.7989 10 36.163 10 35.5V15.5C10 14.837 10.2634 14.2011 10.7322 13.7322C11.2011 13.2634 11.837 13 12.5 13H47.5C48.163 13 48.7989 13.2634 49.2678 13.7322C49.7366 14.2011 50 14.837 50 15.5V35.5Z" fill="#00274C"/>
<path d="M26.0059 34.1279C26.8488 34.1279 27.532 33.4446 27.532 32.6017C27.532 31.7588 26.8488 31.0756 26.0059 31.0756C25.163 31.0756 24.4797 31.7588 24.4797 32.6017C24.4797 33.4446 25.163 34.1279 26.0059 34.1279Z" fill="#00274C"/>
<path d="M33.4186 34.1279C34.2615 34.1279 34.9447 33.4446 34.9447 32.6017C34.9447 31.7588 34.2615 31.0756 33.4186 31.0756C32.5757 31.0756 31.8924 31.7588 31.8924 32.6017C31.8924 33.4446 32.5757 34.1279 33.4186 34.1279Z" fill="#00274C"/>
<path fill-rule="evenodd" clip-rule="evenodd" d="M18.5216 16.6384C18.7887 16.2377 19.3302 16.1294 19.7309 16.3966L23.6553 19.0128C23.8412 19.1368 23.9725 19.3273 24.022 19.5452L26.0479 28.4593H33.4202L33.9331 26.7152H27.9681C27.4864 26.7152 27.096 26.3247 27.096 25.8431C27.096 25.3614 27.4864 24.971 27.9681 24.971H34.4461L35.0874 22.7908H27.9681C27.4864 22.7908 27.096 22.4003 27.096 21.9187C27.096 21.437 27.4864 21.0466 27.9681 21.0466H36.2529C36.5277 21.0466 36.7865 21.1761 36.9512 21.3962C37.1158 21.6163 37.1671 21.9011 37.0896 22.1647L34.9093 29.5775C34.8002 29.9486 34.4595 30.2035 34.0727 30.2035H25.3518C24.9446 30.2035 24.5916 29.9217 24.5014 29.5247L22.3983 20.271L18.7634 17.8478C18.3627 17.5806 18.2544 17.0392 18.5216 16.6384Z" fill="#00274C"/>
</svg>
