<svg width="60" height="81" viewBox="0 0 60 81" fill="none" xmlns="http://www.w3.org/2000/svg">
<path d="M22.2913 9.66663V71.3333M37.7087 9.66663V71.3333M53.125 30.2216H6.875M53.125 50.7783H6.875M12.3962 25.7783H16.7712M12.3962 15.7L14.5837 14.1116M14.5837 14.1116V25.7783M46.1287 25.7783C46.7089 25.7783 47.2653 25.471 47.6755 24.924C48.0858 24.377 48.3162 23.6352 48.3162 22.8616V22.8616C48.3162 22.0881 48.0858 21.3462 47.6755 20.7992C47.2653 20.2523 46.7089 19.945 46.1287 19.945V19.945C46.7089 19.945 47.2653 19.6377 47.6755 19.0907C48.0858 18.5437 48.3162 17.8018 48.3162 17.0283V17.0283C48.3162 16.2547 48.0858 15.5129 47.6755 14.9659C47.2653 14.4189 46.7089 14.1116 46.1287 14.1116M42.5187 24.7933C43.2942 25.5836 44.2713 25.9367 45.24 25.7766H46.1275M42.5187 15.085C43.2957 14.2977 44.2732 13.9483 45.2413 14.1116L46.1287 14.1133M30.7113 61.055C31.2914 61.055 31.8478 60.7477 32.258 60.2007C32.6683 59.6537 32.8988 58.9118 32.8988 58.1383C32.8988 57.3647 32.6683 56.6229 32.258 56.0759C31.8478 55.5289 31.2914 55.2216 30.7113 55.2216H29.2875C28.7073 55.2216 28.1509 55.5289 27.7407 56.0759C27.3305 56.6229 27.1 57.3647 27.1 58.1383C27.1 58.9118 27.3305 59.6537 27.7407 60.2007C28.1509 60.7477 28.7073 61.055 29.2875 61.055V61.055C28.7073 61.055 28.1509 61.3622 27.7407 61.9092C27.3305 62.4562 27.1 63.1981 27.1 63.9716C27.1 64.7452 27.3305 65.487 27.7407 66.034C28.1509 66.581 28.7073 66.8883 29.2875 66.8883H30.71C31.2902 66.8883 31.8466 66.581 32.2568 66.034C32.667 65.487 32.8975 64.7452 32.8975 63.9716V63.9716C32.8975 63.1981 32.667 62.4562 32.2568 61.9092C31.8466 61.3622 31.2902 61.055 30.71 61.055M16.3812 46.3333V34.6666L11.685 42.5033H17.4812" stroke="#00274C" stroke-width="2.08333" stroke-linecap="round" stroke-linejoin="round"/>
<path d="M12.7737 66.8883L17.4812 55.2217H11.685" stroke="#00274C" stroke-width="2.07917" stroke-linecap="round" stroke-linejoin="round"/>
<path d="M27.1012 45.35C27.4721 45.742 27.8981 46.031 28.3541 46.1999C28.8101 46.3688 29.2869 46.4142 29.7562 46.3333H30.0725C30.8218 46.3329 31.5404 45.9356 32.0701 45.229C32.5999 44.5223 32.8975 43.5641 32.8975 42.565V42.565C32.8975 41.5658 32.5999 40.6076 32.0701 39.9009C31.5404 39.1943 30.8218 38.7971 30.0725 38.7966H27.1V34.6666H32.5637" stroke="#00274C" stroke-width="2.08333" stroke-linecap="round" stroke-linejoin="round"/>
<path d="M45.4163 46.3333C47.0172 46.3333 48.315 44.6029 48.315 42.4683C48.315 40.3337 47.0172 38.6033 45.4163 38.6033C43.8153 38.6033 42.5175 40.3337 42.5175 42.4683C42.5175 44.6029 43.8153 46.3333 45.4163 46.3333Z" stroke="#00274C" stroke-width="2.08333" stroke-linecap="round" stroke-linejoin="round"/>
<path d="M48.0588 36.09C47.7711 35.6045 47.3984 35.2207 46.9733 34.9725C46.5482 34.7243 46.0839 34.6193 45.6213 34.6667H45.4163C44.6477 34.6671 43.9107 35.0745 43.3673 35.7993C42.824 36.5241 42.5188 37.5069 42.5188 38.5317V42.4683M27.1013 17.975C27.1013 16.9499 27.4067 15.9668 27.9503 15.242C28.4939 14.5172 29.2312 14.11 30 14.11C30.7688 14.11 31.5061 14.5172 32.0497 15.242C32.5934 15.9668 32.8988 16.9499 32.8988 17.975C32.9102 18.4848 32.8403 18.9921 32.6938 19.4633C32.5473 19.9345 32.3274 20.3588 32.0488 20.7083C30.8775 22.0817 27.1013 25.7783 27.1013 25.7783H32.8988" stroke="#00274C" stroke-width="2.08333" stroke-linecap="round" stroke-linejoin="round"/>
</svg>
