<svg width="60" height="61" viewBox="0 0 60 61" fill="none" xmlns="http://www.w3.org/2000/svg">
<path d="M28.125 41.75H37.5C38.4946 41.75 39.4484 41.3549 40.1516 40.6516C40.8549 39.9484 41.25 38.9946 41.25 38V36.125H35.625C35.1277 36.125 34.6508 35.9275 34.2992 35.5758C33.9475 35.2242 33.75 34.7473 33.75 34.25C33.75 33.7527 33.9475 33.2758 34.2992 32.9242C34.6508 32.5725 35.1277 32.375 35.625 32.375H41.25V26.75H35.625C35.1277 26.75 34.6508 26.5525 34.2992 26.2008C33.9475 25.8492 33.75 25.3723 33.75 24.875C33.75 24.3777 33.9475 23.9008 34.2992 23.5492C34.6508 23.1975 35.1277 23 35.625 23H41.25V17.375H35.625C35.1277 17.375 34.6508 17.1775 34.2992 16.8258C33.9475 16.4742 33.75 15.9973 33.75 15.5C33.75 15.0027 33.9475 14.5258 34.2992 14.1742C34.6508 13.8225 35.1277 13.625 35.625 13.625H41.25V11.75C41.25 10.7554 40.8549 9.80161 40.1516 9.09835C39.4484 8.39509 38.4946 8 37.5 8H22.5C21.5054 8 20.5516 8.39509 19.8484 9.09835C19.1451 9.80161 18.75 10.7554 18.75 11.75V13.625H24.375C24.8723 13.625 25.3492 13.8225 25.7008 14.1742C26.0525 14.5258 26.25 15.0027 26.25 15.5C26.25 15.9973 26.0525 16.4742 25.7008 16.8258C25.3492 17.1775 24.8723 17.375 24.375 17.375H18.75V23H24.375C24.8723 23 25.3492 23.1975 25.7008 23.5492C26.0525 23.9008 26.25 24.3777 26.25 24.875C26.25 25.3723 26.0525 25.8492 25.7008 26.2008C25.3492 26.5525 24.8723 26.75 24.375 26.75H18.75V32.375H24.375C24.8723 32.375 25.3492 32.5725 25.7008 32.9242C26.0525 33.2758 26.25 33.7527 26.25 34.25C26.25 34.7473 26.0525 35.2242 25.7008 35.5758C25.3492 35.9275 24.8723 36.125 24.375 36.125H18.75V38C18.75 38.9946 19.1451 39.9484 19.8484 40.6516C20.5516 41.3549 21.5054 41.75 22.5 41.75H28.125ZM31.875 45.5V53H43.125C43.6223 53 44.0992 53.1975 44.4508 53.5492C44.8025 53.9008 45 54.3777 45 54.875C45 55.3723 44.8025 55.8492 44.4508 56.2008C44.0992 56.5525 43.6223 56.75 43.125 56.75H16.875C16.3777 56.75 15.9008 56.5525 15.5492 56.2008C15.1975 55.8492 15 55.3723 15 54.875C15 54.3777 15.1975 53.9008 15.5492 53.5492C15.9008 53.1975 16.3777 53 16.875 53H28.125V45.5H22.5C20.5109 45.5 18.6032 44.7098 17.1967 43.3033C15.7902 41.8968 15 39.9891 15 38V11.75C15 9.76088 15.7902 7.85322 17.1967 6.4467C18.6032 5.04018 20.5109 4.25 22.5 4.25H37.5C39.4891 4.25 41.3968 5.04018 42.8033 6.4467C44.2098 7.85322 45 9.76088 45 11.75V38C45 39.9891 44.2098 41.8968 42.8033 43.3033C41.3968 44.7098 39.4891 45.5 37.5 45.5H31.875Z" fill="#00274C"/>
</svg>
