<svg width="60" height="61" viewBox="0 0 60 61" fill="none" xmlns="http://www.w3.org/2000/svg">
<path d="M17.5 20.5C16.25 20.5 13.75 21.25 13.75 24.25C13.75 27.25 16.25 28 17.5 28M5 43V50.5C5 51.8261 5.52678 53.0979 6.46447 54.0355C7.40215 54.9732 8.67392 55.5 10 55.5H37.5M5 43V15.5C5 14.1739 5.52678 12.9021 6.46447 11.9645C7.40215 11.0268 8.67392 10.5 10 10.5H17.5M5 43C8.5075 42.415 14.0925 42.2675 19.8625 43.6075M37.5 55.5H45C46.3261 55.5 47.5979 54.9732 48.5355 54.0355C49.4732 53.0979 50 51.8261 50 50.5V35.5M37.5 55.5C33.24 48.58 26.4325 45.13 19.8625 43.6075M19.8625 43.6075C22.6 40.4375 26.6875 37.4825 32.6025 35.5M25 25.5V13C25 12.337 25.2634 11.7011 25.7322 11.2322C26.2011 10.7634 26.837 10.5 27.5 10.5H30L35 5.5H45L50 10.5H52.5C53.163 10.5 53.7989 10.7634 54.2678 11.2322C54.7366 11.7011 55 12.337 55 13V25.5C55 26.163 54.7366 26.7989 54.2678 27.2678C53.7989 27.7366 53.163 28 52.5 28H27.5C26.837 28 26.2011 27.7366 25.7322 27.2678C25.2634 26.7989 25 26.163 25 25.5Z" stroke="#00274C" stroke-width="5" stroke-linecap="round" stroke-linejoin="round"/>
<path d="M40 22.5C42.4853 22.5 44.5 20.4853 44.5 18C44.5 15.5147 42.4853 13.5 40 13.5C37.5147 13.5 35.5 15.5147 35.5 18C35.5 20.4853 37.5147 22.5 40 22.5Z" stroke="#00274C" stroke-width="4" stroke-linecap="round" stroke-linejoin="round"/>
</svg>
