<svg width="60" height="61" viewBox="0 0 60 61" fill="none" xmlns="http://www.w3.org/2000/svg">
<path d="M51.65 18C51.3266 17.4111 50.852 16.9192 50.275 16.575L31.925 5.97503C31.3304 5.66606 30.6701 5.50476 30 5.50476C29.3299 5.50476 28.6696 5.66606 28.075 5.97503L9.72499 16.575C9.16276 16.9362 8.6948 17.4262 8.36 18.0045C8.0252 18.5828 7.83321 19.2326 7.79999 19.9V41.1C7.81811 41.7699 8.00746 42.424 8.34999 43C8.67335 43.5889 9.14802 44.0808 9.72499 44.425L28.075 55.025C28.6696 55.334 29.3299 55.4953 30 55.4953C30.6701 55.4953 31.3304 55.334 31.925 55.025L50.275 44.425C50.852 44.0808 51.3266 43.5889 51.65 43C51.9925 42.424 52.1819 41.7699 52.2 41.1V19.9C52.1819 19.2301 51.9925 18.576 51.65 18ZM30 45.3C27.4098 45.2885 24.868 44.5973 22.6286 43.2956C20.3892 41.9939 18.5306 40.1273 17.2387 37.8823C15.9467 35.6373 15.2665 33.0925 15.2662 30.5023C15.2658 27.9121 15.9452 25.3671 17.2366 23.1217C18.5279 20.8764 20.3859 19.0092 22.6249 17.7069C24.864 16.4046 27.4056 15.7127 29.9958 15.7003C32.586 15.688 35.134 16.3557 37.3853 17.6367C39.6367 18.9177 41.5123 20.767 42.825 23L40 24.775L39.1 25.275L36.6 26.8C35.8018 25.3199 34.5293 24.1509 32.9869 23.4809C31.4445 22.8109 29.7216 22.6787 28.095 23.1055C26.4685 23.5324 25.0325 24.4935 24.0178 25.8345C23.0031 27.1755 22.4686 28.8187 22.5 30.5C22.4929 31.8011 22.8385 33.0797 23.5 34.2C24.1685 35.3021 25.1098 36.2133 26.233 36.8457C27.3562 37.4781 28.6235 37.8103 29.9125 37.8103C31.2015 37.8103 32.4687 37.4781 33.592 36.8457C34.7152 36.2133 35.6565 35.3021 36.325 34.2L42.825 38C41.5089 40.2291 39.6331 42.0754 37.3834 43.3559C35.1338 44.6364 32.5885 45.3066 30 45.3ZM44.8 31.325H43.15V33H41.525V31.35H40V29.7H41.65V28H43.275V29.65H44.925L44.8 31.325ZM50.975 31.325H49.325V33H47.675V31.35H46.05V29.7H47.675V28H49.325V29.65H50.975V31.325Z" fill="#00274C"/>
</svg>
