<svg width="60" height="61" viewBox="0 0 60 61" fill="none" xmlns="http://www.w3.org/2000/svg">
<path d="M50.9775 9.64067V11.6938H42.54V9.63879H15.1163V11.6938H6.67877V9.63879H4.80377V49.4825H6.67877V47.4313H15.1163V49.4844H42.5381V47.4313H50.9756V49.4844H53.3194V9.64067H50.9756H50.9775ZM15.1163 44.975H6.67877V39.1138H15.1163V44.9732V44.975ZM15.1163 36.65H6.67877V30.7925H15.1163V36.6519V36.65ZM15.1163 28.3325H6.67877V22.475H15.1163V28.3325ZM15.1163 20.0113H6.67877V14.15H15.1163V20.0113ZM21.0881 39.1063V18.7888L38.6794 28.9475L21.0863 39.1063H21.0881ZM50.9756 44.975H42.5381V39.1138H50.9756V44.9732V44.975ZM50.9756 36.65H42.5381V30.7925H50.9756V36.6519V36.65ZM50.9756 28.3325H42.5381V22.475H50.9756V28.3325ZM50.9756 20.0113H42.5381V14.15H50.9756V20.0113Z" fill="#00274C"/>
</svg>
