<svg width="117" height="28" viewBox="0 0 117 28" fill="none" xmlns="http://www.w3.org/2000/svg">
<path d="M23.5273 27.4568C21.6918 27.4568 20.2516 27.2168 19.2066 26.7367C18.2631 26.3472 17.4734 25.6567 16.9591 24.7717C16.4917 23.8932 16.2608 22.9073 16.2892 21.9116C16.3233 20.7494 16.4816 19.5943 16.7615 18.4661L21.6818 0.935416L27.6873 0L22.2847 19.2837C22.1891 19.7062 22.1308 20.1363 22.1105 20.5691C22.091 20.9252 22.1649 21.2803 22.3249 21.5987C22.5058 21.9205 22.7871 22.1736 23.1254 22.3188C23.6234 22.5251 24.1545 22.6391 24.6929 22.6552L23.5273 27.4568Z" fill="#00274C"/>
<path d="M44.8967 18.2506C44.5359 19.7062 44.4316 21.2139 44.5885 22.7056C44.711 24.0573 45.0071 25.3873 45.4694 26.6626L40.3146 27.4029C40.1606 27.0933 40.0199 26.7939 39.8892 26.5079C39.7586 26.2219 39.6313 25.8988 39.5007 25.5354C38.7719 26.136 37.9651 26.6341 37.1025 27.0159C36.1721 27.4135 35.1694 27.6118 34.1584 27.5981C33.0164 27.6309 31.8821 27.4007 30.8424 26.9251C29.9619 26.5 29.1932 25.873 28.5983 25.0946C27.9987 24.2939 27.57 23.3775 27.3389 22.4028C26.6712 19.6279 26.8676 16.7139 27.9016 14.0547C28.5057 12.5157 29.3995 11.1082 30.5343 9.90927C31.6672 8.73482 33.0193 7.79611 34.5134 7.14676C36.0771 6.4651 37.766 6.12119 39.4706 6.13732C39.7017 6.13732 40.1103 6.13732 40.6898 6.17433C41.2692 6.21134 41.9358 6.25846 42.6994 6.34931C43.4957 6.45204 44.2853 6.60146 45.0641 6.79682H45.0876C45.7295 6.96799 46.279 7.38536 46.6178 7.9592C46.9566 8.53304 47.0578 9.21753 46.8996 9.86552L44.8967 18.2506ZM40.8773 11.0903C40.5424 11.0365 40.2409 10.9995 39.9696 10.9725C39.6983 10.9456 39.417 10.9355 39.0653 10.9322C38.1826 10.9244 37.3133 11.1483 36.5432 11.5816C35.7703 12.0307 35.0886 12.622 34.5335 13.3245C33.9487 14.0654 33.4955 14.9021 33.1937 15.7977C32.8689 16.7356 32.7047 17.722 32.7081 18.715C32.6589 19.739 32.8723 20.7585 33.3277 21.676C33.7397 22.4028 34.5034 22.7628 35.612 22.7628C36.1666 22.7771 36.7169 22.6619 37.2197 22.4263C37.7902 22.1254 38.3074 21.7321 38.7504 21.2621C38.8007 20.6127 38.8878 19.9162 39.0016 19.2163C39.1155 18.5164 39.2428 17.8468 39.3701 17.2513L40.8773 11.0903Z" fill="#00274C"/>
<path d="M52.2654 7.53038C52.7042 7.40252 53.1898 7.2511 53.719 7.08286C54.2482 6.91462 54.8411 6.74638 55.5009 6.61515C56.1608 6.48393 56.8943 6.35606 57.7082 6.27867C58.6284 6.18308 59.5531 6.13814 60.4782 6.14407C63.5262 6.14407 65.6174 7.02566 66.7517 8.78882C67.886 10.552 68.0814 12.9601 67.3378 16.0131L64.7052 27.0664H58.9241L61.483 16.2486C61.6371 15.5756 61.7577 14.9195 61.8515 14.2835C61.9441 13.726 61.9373 13.1563 61.8314 12.6011C61.7374 12.14 61.4834 11.7273 61.1146 11.4369C60.6055 11.0982 59.9985 10.9395 59.3896 10.986C58.6224 10.9891 57.8572 11.068 57.1053 11.2216L53.3472 27.0664H47.5762L52.2654 7.53038Z" fill="#00274C"/>
<path d="M67.9442 18.8934C67.9333 17.196 68.2213 15.51 68.795 13.9135C69.336 12.4079 70.1655 11.0236 71.2367 9.83869C72.3157 8.65672 73.6289 7.71458 75.0919 7.07282C76.6872 6.38264 78.4095 6.03865 80.1462 6.06338C81.1951 6.05368 82.2416 6.1666 83.2646 6.39986C84.1276 6.5999 84.9664 6.89323 85.7666 7.27471L83.7904 11.7903C83.2701 11.5817 82.7342 11.3932 82.1827 11.225C81.5195 11.0429 80.8336 10.9579 80.1462 10.9726C78.2103 10.9726 76.6874 11.6276 75.5776 12.9377C74.4678 14.2477 73.9096 16.0311 73.9029 18.2877C73.8499 19.4207 74.1483 20.5424 74.757 21.4977C75.3242 22.3143 76.3703 22.7236 77.8954 22.7259C78.6242 22.7285 79.3511 22.6495 80.0625 22.4904C80.6996 22.3536 81.3229 22.1587 81.9248 21.9082L82.3502 26.5382C81.5718 26.8414 80.7753 27.0954 79.9654 27.2987C78.9311 27.5389 77.8716 27.6519 76.8102 27.6352C75.421 27.6739 74.0379 27.436 72.7406 26.9353C71.6985 26.514 70.7602 25.8698 69.9907 25.0476C69.2639 24.2522 68.7278 23.3004 68.4232 22.2649C68.0956 21.1717 67.9342 20.035 67.9442 18.8934Z" fill="#00274C"/>
<path d="M83.432 19.0515C83.4284 17.4034 83.7235 15.7684 84.3029 14.2264C84.8623 12.7041 85.697 11.2987 86.7647 10.081C87.8415 8.85514 89.151 7.85761 90.6166 7.14686C92.1843 6.39457 93.9036 6.01574 95.6407 6.03984C96.4941 6.0368 97.3423 6.17201 98.1528 6.44025C98.895 6.68437 99.5847 7.06678 100.186 7.56746C100.765 8.06312 101.229 8.68128 101.542 9.37773C101.874 10.1448 102.039 10.9743 102.025 11.8105C102.067 13.1125 101.73 14.3986 101.057 15.5118C100.385 16.5492 99.4631 17.3998 98.3772 17.9849C97.0977 18.665 95.7164 19.131 94.2876 19.3645C92.5865 19.6606 90.8625 19.8036 89.1361 19.7918C89.317 20.882 89.7111 21.6548 90.3185 22.1102C90.9247 22.561 91.886 22.7831 93.2024 22.7831C94.0465 22.7823 94.889 22.7103 95.7211 22.5678C96.5406 22.4346 97.3451 22.2204 98.1227 21.9285L98.5481 26.481C97.6481 26.8177 96.7215 27.0777 95.7781 27.2583C94.5734 27.4945 93.3479 27.6073 92.1205 27.5948C90.7401 27.6346 89.3651 27.4061 88.071 26.9218C87.0701 26.5387 86.1723 25.9256 85.4494 25.1316C84.7265 24.3376 84.1985 23.3847 83.9077 22.3491C83.5893 21.2792 83.4291 20.1682 83.432 19.0515ZM94.7029 10.6395C94.0602 10.6358 93.4232 10.7596 92.8283 11.0038C92.2333 11.2481 91.6923 11.608 91.2362 12.0628C90.2064 13.0761 89.5218 14.3904 89.2802 15.818C90.5816 15.7984 91.8786 15.661 93.1555 15.4075C93.9515 15.255 94.7211 14.9863 95.4398 14.61C95.8912 14.3862 96.2682 14.0355 96.525 13.6006C96.7018 13.271 96.8004 12.9048 96.813 12.5306C96.813 11.2721 96.1097 10.6429 94.7029 10.6429V10.6395Z" fill="#00274C"/>
<path d="M115.299 11.5648L113.764 11.2081C113.03 11.0725 112.284 11.0139 111.537 11.0332C111.134 11.0371 110.733 11.0697 110.335 11.1308C109.97 11.1798 109.609 11.2506 109.253 11.3427L106.342 23.5132C106.101 24.5255 105.527 25.4266 104.713 26.0712C103.899 26.7158 102.893 27.0664 101.857 27.0665H99.7203L104.369 7.6852C105.481 7.32516 106.714 6.97859 108.107 6.65557C109.64 6.31376 111.207 6.15005 112.776 6.16767C113.496 6.17464 114.215 6.2331 114.927 6.34263C115.639 6.43996 116.336 6.62999 117 6.90793L115.299 11.5648Z" fill="#00274C"/>
<path d="M4.3685 1.95824L10.374 1.02283L9.00077 6.743L7.84856 11.521L6.06666 18.9606C5.92035 19.5117 5.82284 20.0747 5.77526 20.643C5.72835 21.1009 5.79509 21.5633 5.96953 21.9889C6.14791 22.3758 6.45791 22.6861 6.84373 22.8638C7.38042 23.0945 7.9621 23.2003 8.54524 23.1734C9.15021 23.1755 9.75387 23.1168 10.3472 22.9984C10.9445 22.876 11.533 22.7142 12.109 22.5139L12.5344 26.9487C11.7122 27.2481 10.8721 27.4953 10.019 27.6889C8.96171 27.9101 7.88341 28.014 6.80354 27.9985C5.01717 27.9985 3.63497 27.7327 2.65694 27.201C1.73526 26.7325 0.997745 25.9655 0.563538 25.024C0.132599 24.0227 -0.0556604 22.9329 0.01423 21.8442C0.0762938 20.5717 0.256835 19.3077 0.553489 18.0689L4.3685 1.95824Z" fill="#00274C"/>
<path d="M17.4146 6.18786L10.776 6.11047L9.30896 12.1604L14.735 12.0998L17.4146 6.18786Z" fill="#00274C"/>
</svg>
