<svg width="210" height="209" viewBox="0 0 210 209" fill="none" xmlns="http://www.w3.org/2000/svg">
<path d="M203.646 0H7.29583C3.81498 0 0.993164 2.82172 0.993164 6.3025V202.649C0.993164 206.13 3.81498 208.951 7.29583 208.951H203.646C207.126 208.951 209.948 206.13 209.948 202.649V6.3025C209.948 2.82172 207.126 0 203.646 0Z" fill="#00274C"/>
<path d="M154.974 64.8091L114.152 64.4014L105.131 95.812L138.496 95.4722L154.974 64.8091Z" fill="url(#paint0_linear_18_1636)"/>
<path d="M92.4912 42.8605L123.8 38.002L116.648 67.7138L110.669 92.4992L101.376 131.113C100.617 133.956 100.111 136.861 99.864 139.794C99.6087 142.164 99.9595 144.561 100.883 146.759C101.801 148.771 103.41 150.387 105.419 151.311C108.222 152.511 111.259 153.063 114.304 152.925C117.458 152.933 120.605 152.626 123.699 152.008C126.817 151.383 129.887 150.543 132.889 149.494L135.115 172.512C130.825 174.076 126.439 175.358 121.983 176.351C116.473 177.532 110.85 178.102 105.215 178.05C95.9171 178.05 88.7141 176.669 83.6063 173.905C78.8031 171.474 74.9605 167.494 72.6999 162.608C70.4706 157.422 69.5042 151.78 69.8799 146.147C70.2076 139.539 71.1517 132.976 72.6999 126.543L92.4912 42.8605Z" fill="#AADD22"/>
<path d="M159.527 64.8091L124.905 64.4014L117.26 95.812L145.546 95.4722L159.527 64.8091Z" fill="#00CC67"/>
<defs>
<linearGradient id="paint0_linear_18_1636" x1="110.686" y1="80.1152" x2="130.324" y2="80.1152" gradientUnits="userSpaceOnUse">
<stop stop-color="#60CE00"/>
<stop offset="0.08" stop-color="#57CE09"/>
<stop offset="0.7" stop-color="#19CD4D"/>
<stop offset="0.99" stop-color="#00CC67"/>
</linearGradient>
</defs>
</svg>
