<svg width="117" height="28" viewBox="0 0 117 28" fill="none" xmlns="http://www.w3.org/2000/svg">
<path d="M23.5273 27.4568C21.6918 27.4568 20.2516 27.2168 19.2066 26.7367C18.2631 26.3472 17.4734 25.6567 16.9591 24.7717C16.4917 23.8932 16.2608 22.9073 16.2892 21.9116C16.3233 20.7494 16.4816 19.5943 16.7615 18.4661L21.6818 0.935416L27.6873 0L22.2847 19.2837C22.1891 19.7062 22.1308 20.1363 22.1105 20.5691C22.091 20.9252 22.1649 21.2803 22.3249 21.5987C22.5058 21.9205 22.7871 22.1736 23.1254 22.3188C23.6234 22.5251 24.1545 22.6391 24.6929 22.6552L23.5273 27.4568Z" fill="#9CA3AF"/>
<path d="M44.8967 18.2506C44.5359 19.7061 44.4316 21.2139 44.5885 22.7056C44.711 24.0572 45.0071 25.3873 45.4694 26.6626L40.3146 27.4028C40.1606 27.0933 40.0199 26.7938 39.8892 26.5078C39.7586 26.2218 39.6313 25.8988 39.5007 25.5354C38.7719 26.1359 37.9651 26.634 37.1025 27.0159C36.1721 27.4134 35.1694 27.6117 34.1584 27.598C33.0164 27.6308 31.8821 27.4006 30.8424 26.925C29.9619 26.5 29.1932 25.873 28.5983 25.0946C27.9987 24.2939 27.57 23.3775 27.3389 22.4027C26.6712 19.6278 26.8676 16.7138 27.9016 14.0546C28.5057 12.5156 29.3995 11.1081 30.5343 9.90921C31.6672 8.73476 33.0193 7.79605 34.5134 7.1467C36.0771 6.46504 37.766 6.12113 39.4706 6.13726C39.7017 6.13726 40.1103 6.13726 40.6898 6.17427C41.2692 6.21128 41.9358 6.2584 42.6994 6.34925C43.4957 6.45198 44.2853 6.6014 45.0641 6.79676H45.0876C45.7295 6.96793 46.279 7.3853 46.6178 7.95914C46.9566 8.53298 47.0578 9.21746 46.8996 9.86546L44.8967 18.2506ZM40.8773 11.0903C40.5424 11.0364 40.2409 10.9994 39.9696 10.9725C39.6983 10.9456 39.417 10.9355 39.0653 10.9321C38.1826 10.9244 37.3133 11.1482 36.5432 11.5815C35.7703 12.0307 35.0886 12.622 34.5335 13.3245C33.9487 14.0654 33.4955 14.902 33.1937 15.7976C32.8689 16.7355 32.7047 17.7219 32.7081 18.7149C32.6589 19.7389 32.8723 20.7585 33.3277 21.6759C33.7397 22.4027 34.5034 22.7628 35.612 22.7628C36.1666 22.777 36.7169 22.6618 37.2197 22.4263C37.7902 22.1254 38.3074 21.732 38.7504 21.2621C38.8007 20.6127 38.8878 19.9161 39.0016 19.2163C39.1155 18.5164 39.2428 17.8468 39.3701 17.2512L40.8773 11.0903Z" fill="#9CA3AF"/>
<path d="M52.2654 7.53038C52.7042 7.40252 53.1898 7.2511 53.719 7.08286C54.2482 6.91462 54.8411 6.74638 55.5009 6.61515C56.1608 6.48393 56.8943 6.35606 57.7082 6.27867C58.6284 6.18308 59.5531 6.13814 60.4782 6.14407C63.5262 6.14407 65.6174 7.02566 66.7517 8.78882C67.886 10.552 68.0814 12.9601 67.3378 16.0131L64.7052 27.0664H58.9241L61.483 16.2486C61.6371 15.5756 61.7577 14.9195 61.8515 14.2835C61.9441 13.726 61.9373 13.1563 61.8314 12.6011C61.7374 12.14 61.4834 11.7273 61.1146 11.4369C60.6055 11.0982 59.9985 10.9395 59.3896 10.986C58.6224 10.9891 57.8572 11.068 57.1053 11.2216L53.3472 27.0664H47.5762L52.2654 7.53038Z" fill="#9CA3AF"/>
<path d="M67.9442 18.8935C67.9333 17.1961 68.2213 15.5102 68.795 13.9136C69.336 12.4081 70.1655 11.0237 71.2367 9.83881C72.3157 8.65684 73.6289 7.7147 75.0919 7.07294C76.6872 6.38276 78.4095 6.03878 80.1462 6.0635C81.1951 6.0538 82.2416 6.16672 83.2646 6.39998C84.1276 6.60002 84.9664 6.89335 85.7666 7.27483L83.7904 11.7904C83.2701 11.5818 82.7342 11.3934 82.1827 11.2251C81.5195 11.043 80.8336 10.958 80.1462 10.9728C78.2103 10.9728 76.6874 11.6278 75.5776 12.9378C74.4678 14.2478 73.9096 16.0312 73.9029 18.2878C73.8499 19.4209 74.1483 20.5425 74.757 21.4979C75.3242 22.3144 76.3703 22.7238 77.8954 22.726C78.6242 22.7286 79.3511 22.6496 80.0625 22.4905C80.6996 22.3537 81.3229 22.1589 81.9248 21.9084L82.3502 26.5383C81.5718 26.8415 80.7753 27.0955 79.9654 27.2988C78.9311 27.539 77.8716 27.652 76.8102 27.6353C75.421 27.674 74.0379 27.4362 72.7406 26.9354C71.6985 26.5141 70.7602 25.87 69.9907 25.0477C69.2639 24.2523 68.7278 23.3005 68.4232 22.265C68.0956 21.1718 67.9342 20.0352 67.9442 18.8935Z" fill="#9CA3AF"/>
<path d="M83.432 19.0516C83.4284 17.4035 83.7235 15.7684 84.3029 14.2265C84.8623 12.7041 85.697 11.2987 86.7647 10.081C87.8415 8.8552 89.151 7.85767 90.6166 7.14692C92.1843 6.39463 93.9036 6.0158 95.6407 6.0399C96.4941 6.03686 97.3423 6.17207 98.1528 6.44031C98.895 6.68443 99.5847 7.06684 100.186 7.56752C100.765 8.06318 101.229 8.68134 101.542 9.37779C101.874 10.1448 102.039 10.9743 102.025 11.8105C102.067 13.1126 101.73 14.3987 101.057 15.5118C100.385 16.5493 99.4631 17.3999 98.3772 17.985C97.0977 18.6651 95.7164 19.131 94.2876 19.3645C92.5865 19.6607 90.8625 19.8037 89.1361 19.7919C89.317 20.8821 89.7111 21.6548 90.3185 22.1102C90.9247 22.5611 91.886 22.7832 93.2024 22.7832C94.0465 22.7824 94.889 22.7103 95.7211 22.5678C96.5406 22.4346 97.3451 22.2205 98.1227 21.9285L98.5481 26.4811C97.6481 26.8178 96.7215 27.0778 95.7781 27.2584C94.5734 27.4946 93.3479 27.6073 92.1205 27.5949C90.7401 27.6347 89.3651 27.4062 88.071 26.9219C87.0701 26.5387 86.1723 25.9256 85.4494 25.1316C84.7265 24.3376 84.1985 23.3847 83.9077 22.3491C83.5893 21.2793 83.4291 20.1682 83.432 19.0516ZM94.7029 10.6396C94.0602 10.6358 93.4232 10.7596 92.8283 11.0039C92.2333 11.2481 91.6923 11.608 91.2362 12.0629C90.2064 13.0761 89.5218 14.3905 89.2802 15.818C90.5816 15.7985 91.8786 15.6611 93.1555 15.4075C93.9515 15.2551 94.7211 14.9864 95.4398 14.6101C95.8912 14.3863 96.2682 14.0356 96.525 13.6006C96.7018 13.271 96.8004 12.9048 96.813 12.5306C96.813 11.2722 96.1097 10.643 94.7029 10.643V10.6396Z" fill="#9CA3AF"/>
<path d="M115.299 11.5649L113.764 11.2083C113.03 11.0726 112.284 11.014 111.537 11.0333C111.134 11.0372 110.733 11.0698 110.335 11.1309C109.97 11.1799 109.609 11.2507 109.253 11.3429L106.342 23.5134C106.101 24.5257 105.527 25.4267 104.713 26.0714C103.899 26.716 102.893 27.0666 101.857 27.0666H99.7203L104.369 7.68532C105.481 7.32528 106.714 6.97871 108.107 6.65569C109.64 6.31389 111.207 6.15018 112.776 6.16779C113.496 6.17476 114.215 6.23322 114.927 6.34275C115.639 6.44008 116.336 6.63011 117 6.90805L115.299 11.5649Z" fill="#9CA3AF"/>
<path d="M4.3685 1.95836L10.374 1.02295L9.00077 6.74312L7.84856 11.5211L6.06666 18.9607C5.92035 19.5118 5.82284 20.0748 5.77526 20.6431C5.72835 21.101 5.79509 21.5634 5.96953 21.9891C6.14791 22.376 6.45791 22.6862 6.84373 22.8639C7.38042 23.0946 7.9621 23.2005 8.54524 23.1735C9.15021 23.1756 9.75387 23.117 10.3472 22.9985C10.9445 22.8761 11.533 22.7143 12.109 22.514L12.5344 26.9488C11.7122 27.2482 10.8721 27.4955 10.019 27.689C8.96171 27.9103 7.88341 28.0141 6.80354 27.9986C5.01717 27.9986 3.63497 27.7328 2.65694 27.2011C1.73526 26.7326 0.997745 25.9657 0.563538 25.0241C0.132599 24.0228 -0.0556604 22.933 0.01423 21.8444C0.0762938 20.5718 0.256835 19.3078 0.553489 18.0691L4.3685 1.95836Z" fill="#9CA3AF"/>
<path d="M17.4146 6.18798L10.776 6.1106L9.30896 12.1605L14.735 12.0999L17.4146 6.18798Z" fill="#9CA3AF"/>
</svg>
