<svg width="70" height="70" viewBox="0 0 70 70" fill="none" xmlns="http://www.w3.org/2000/svg">
<path d="M52.7184 15.9975C51.9374 15.2164 50.671 15.2164 49.89 15.9975L36.4143 29.4732C35.6332 30.2543 34.3669 30.2543 33.5858 29.4732L20.1101 15.9975C19.329 15.2164 18.0627 15.2164 17.2817 15.9975L15.9976 17.2815C15.2165 18.0626 15.2165 19.3289 15.9976 20.11L29.4733 33.5857C30.2544 34.3668 30.2544 35.6331 29.4733 36.4141L15.9976 49.8899C15.2165 50.6709 15.2165 51.9373 15.9976 52.7183L17.2817 54.0024C18.0627 54.7834 19.329 54.7834 20.1101 54.0024L33.5858 40.5266C34.3669 39.7456 35.6332 39.7456 36.4143 40.5266L49.89 54.0024C50.671 54.7834 51.9374 54.7834 52.7184 54.0024L54.0025 52.7183C54.7835 51.9373 54.7835 50.6709 54.0025 49.8899L40.5268 36.4141C39.7457 35.6331 39.7457 34.3668 40.5268 33.5857L54.0025 20.11C54.7835 19.3289 54.7835 18.0626 54.0025 17.2815L52.7184 15.9975Z" fill="#00274C"/>
</svg>
